<?xml version="1.0" encoding="utf-8"?>
<!-- Generator: Adobe Illustrator 24.1.0, SVG Export Plug-In . SVG Version: 6.00 Build 0)  -->
<svg version="1.1" id="Layer_1" xmlns="http://www.w3.org/2000/svg" xmlns:xlink="http://www.w3.org/1999/xlink" x="0px" y="0px"
	 viewBox="0 0 16 16" style="enable-background:new 0 0 16 16;" xml:space="preserve">
<style type="text/css">
	.st0{fill:#231F20;}
</style>
<path class="st0" d="M1.7,9.9L1.7,9.9c0.6,0.4,1.3,0.5,2,0.6c0.4-0.7,0.9-1.3,1.6-1.7l0.2-0.1C6.3,8.2,7.2,8,8,8.1
	c-0.8,0-1.7-0.2-2.4-0.6L5.4,7.3c-0.7-0.4-1.3-1-1.7-1.8c-0.7,0-1.4,0.2-2,0.6l0,0C0.9,6.6,0.4,7.2,0,8.1C0.4,8.8,1,9.5,1.7,9.9z"/>
<path class="st0" d="M6.5,14.4L6.5,14.4C7.1,14,7.6,13.5,8,13c-0.4-0.7-0.7-1.5-0.7-2.3v-0.2c0-0.8,0.2-1.6,0.7-2.4
	C7.6,8.8,7,9.4,6.2,9.8L6,9.9c-0.7,0.4-1.5,0.6-2.3,0.6c-0.3,0.6-0.5,1.3-0.5,2l0,0c0,0.9,0.3,1.7,0.8,2.4C4.9,15,5.8,14.8,6.5,14.4
	z"/>
<path class="st0" d="M12.8,12.5c0-0.7-0.2-1.4-0.5-2c-0.8,0-1.6-0.2-2.3-0.6L9.8,9.8C9.1,9.4,8.4,8.8,8,8.1c0.4,0.7,0.7,1.6,0.7,2.4
	v0.2c0,0.8-0.2,1.6-0.7,2.3c0.4,0.6,0.9,1.1,1.5,1.4l0,0c0.8,0.4,1.6,0.6,2.5,0.6C12.5,14.2,12.8,13.4,12.8,12.5z"/>
<path class="st0" d="M14.3,6.1L14.3,6.1c-0.6-0.4-1.3-0.5-2-0.6c-0.4,0.7-1,1.3-1.7,1.7l-0.2,0.1C9.7,7.8,8.8,8,8,8.1
	c0.8,0,1.7,0.2,2.4,0.6l0.2,0.1c0.7,0.4,1.3,1,1.7,1.7c0.7,0,1.4-0.2,2-0.6l0,0C15,9.5,15.6,8.8,16,8.1C15.6,7.2,15,6.5,14.3,6.1z"
	/>
<path class="st0" d="M3.2,3.5c0,0.7,0.2,1.4,0.5,2c0.8,0,1.6,0.2,2.3,0.6l0.2,0.1C7,6.7,7.6,7.3,8,8.1l0,0C7.6,7.3,7.4,6.5,7.3,5.6
	V5.3c0-0.8,0.2-1.6,0.7-2.3C7.6,2.5,7.1,2,6.5,1.6l0,0C5.8,1.2,4.9,1,4,1.1C3.5,1.8,3.2,2.6,3.2,3.5L3.2,3.5z"/>
<path class="st0" d="M9.5,1.6L9.5,1.6C8.9,2,8.4,2.5,8,3.1c0.4,0.7,0.7,1.5,0.7,2.3v0.2c0,0.9-0.2,1.7-0.7,2.5l0,0
	c0.4-0.8,1-1.4,1.8-1.8L10,6.1c0.7-0.4,1.5-0.6,2.3-0.6c0.3-0.6,0.5-1.3,0.5-2l0,0c0-0.9-0.3-1.8-0.8-2.5C11.1,1,10.2,1.2,9.5,1.6z"
	/>
</svg>
