<svg xmlns="http://www.w3.org/2000/svg" viewBox="0 0 16 13.89"><path d="M1.74,8.86h0a4.31,4.31,0,0,0,2,.57A4.31,4.31,0,0,1,5.37,7.71l.21-.12A4.84,4.84,0,0,1,8,7a5,5,0,0,1-2.42-.64l-.21-.12A4.31,4.31,0,0,1,3.7,4.47a4.18,4.18,0,0,0-2,.56h0A4.31,4.31,0,0,0,0,7,4.24,4.24,0,0,0,1.74,8.86Z" fill="#231f20"/><path d="M6.53,13.32h0A4.23,4.23,0,0,0,8,11.91,4.32,4.32,0,0,1,7.34,9.6V9.36A4.89,4.89,0,0,1,8,7,4.89,4.89,0,0,1,6.24,8.72L6,8.85a4.3,4.3,0,0,1-2.33.58,4.33,4.33,0,0,0-.49,2h0A4.27,4.27,0,0,0,4,13.88,4.24,4.24,0,0,0,6.53,13.32Z" fill="#231f20"/><path d="M12.79,11.41a4.33,4.33,0,0,0-.49-2A4.3,4.3,0,0,1,10,8.85l-.21-.13A4.89,4.89,0,0,1,8,7a4.89,4.89,0,0,1,.66,2.41V9.6A4.32,4.32,0,0,1,8,11.91a4.23,4.23,0,0,0,1.47,1.41h0a4.24,4.24,0,0,0,2.53.56,4.27,4.27,0,0,0,.79-2.47Z" fill="#231f20"/><path d="M14.26,5h0a4.18,4.18,0,0,0-2-.56,4.31,4.31,0,0,1-1.67,1.72l-.21.12A5,5,0,0,1,8,7a4.84,4.84,0,0,1,2.42.64l.21.12A4.31,4.31,0,0,1,12.3,9.43a4.31,4.31,0,0,0,2-.57h0A4.24,4.24,0,0,0,16,7,4.31,4.31,0,0,0,14.26,5Z" fill="#231f20"/><path d="M3.21,2.48a4.37,4.37,0,0,0,.49,2A4.21,4.21,0,0,1,6,5.05l.21.12A4.92,4.92,0,0,1,8,7H8a5,5,0,0,1-.66-2.42V4.29A4.26,4.26,0,0,1,8,2,4.17,4.17,0,0,0,6.53.57h0A4.3,4.3,0,0,0,4,0a4.26,4.26,0,0,0-.79,2.46Z" fill="#231f20"/><path d="M9.47.57h0A4.17,4.17,0,0,0,8,2a4.26,4.26,0,0,1,.66,2.3v.24A5,5,0,0,1,8,7H8A4.92,4.92,0,0,1,9.76,5.17L10,5.05a4.21,4.21,0,0,1,2.33-.58,4.37,4.37,0,0,0,.49-2h0A4.26,4.26,0,0,0,12,0,4.3,4.3,0,0,0,9.47.57Z" fill="#231f20"/></svg>